<?xml version="1.0" encoding="utf-8"?>
<!-- Svg Vector Icons : http://www.onlinewebfonts.com/icon -->
<!DOCTYPE svg PUBLIC "-//W3C//DTD SVG 1.1//EN" "http://www.w3.org/Graphics/SVG/1.1/DTD/svg11.dtd">
<svg version="1.1" xmlns="http://www.w3.org/2000/svg" xmlns:xlink="http://www.w3.org/1999/xlink" x="0px" y="0px" viewBox="0 0 1000 1000" enable-background="new 0 0 1000 1000" xml:space="preserve">
<metadata> Svg Vector Icons : http://www.onlinewebfonts.com/icon </metadata>
<g><g transform="translate(0.000000,511.000000) scale(0.100000,-0.100000)"><path d="M100,110v-4900h4900h4900V110v4900H5000H100V110z M9660,1590v-3180H8080H6500v-1480v-1480H3420H340V110v4660h4660h4660V1590z M9450-1868c-34-30-626-590-1320-1242c-692-652-1298-1222-1344-1268l-86-80v1324v1324h1404h1406L9450-1868z"/><path d="M1464,4356c-194-96-216-384-40-510c146-102,358-50,438,108C1994,4212,1724,4486,1464,4356z"/><path d="M8264,4358c-262-134-188-530,104-562c230-26,400,212,302,422C8600,4364,8408,4430,8264,4358z"/></g></g>
</svg>