<svg width="320" height="320" viewBox="0 0 320 320" fill="none" xmlns="http://www.w3.org/2000/svg">
<g filter="url(#filter0_di_4_20)">
<path d="M7.92558 24.7527L0 29.7032L3.46744 35.4154V42.6508L5.94419 47.9821L6.93488 72.354V103.2L8.91628 105.865V122.621L11.8884 129.856V143.185L10.8977 151.182L14.3651 161.464L11.8884 168.699L13.3744 175.173L10.8977 180.504L13.3744 189.263L11.8884 196.879V225.821V257.809L15.3558 263.902L13.8698 289.797L17.3372 299.698L16.3465 313.788L21.3 316.834L26.7488 315.311L33.1884 318.738L39.6279 313.788L42.6 316.834L47.5535 315.311L51.0209 313.788L52.507 315.311L54.4884 313.788L57.9558 314.549L60.9279 316.834L62.9093 315.311L64.8907 316.834L68.3581 315.311H72.3209L76.7791 312.645L79.7512 314.549L85.2 313.788L89.6581 316.834L91.6395 315.311L94.6116 317.596L98.0791 316.834L103.528 311.503H106.995L116.407 304.268H118.884L122.351 301.983L128.295 305.029L137.707 300.84L143.651 301.983L149.1 304.268L155.044 305.029L157.521 308.076H164.456L171.886 315.311H180.307L185.756 318.358L190.709 319.5L195.663 316.834L201.112 317.596L208.542 315.311H213.991L231.328 305.791L247.179 301.602L264.021 296.651L271.451 300.84L282.844 298.555L286.312 303.887L302.163 307.314L308.107 305.791H315.537L318.509 292.082V285.227L316.528 283.323L317.519 272.66L316.528 271.899V260.855L315.537 257.809L316.528 247.146L315.537 244.1L314.051 240.672V232.294L310.584 217.824V194.975L311.574 170.984C310.584 160.321 312.565 155.371 311.574 145.47C310.584 135.569 319.5 125.287 319.5 122.621C319.5 119.955 317.689 120.068 316.528 118.432L318.014 111.197L316.528 107.769V101.296L311.574 91.7753V84.5399L309.593 80.7318L311.574 73.8772L307.116 69.3075L308.602 60.9297V51.4094V45.3164L305.63 39.6043L304.64 29.7032V22.087H301.667L298.695 23.2294L294.237 20.9446H291.265L287.798 18.2789H284.826L278.386 17.5173L271.947 16.3749H268.974L263.03 12.5667H261.049L257.086 10.2819L255.105 12.5667L251.637 10.2819L249.656 12.5667L245.198 7.99702L241.235 9.13945L237.767 7.99702L233.805 9.13945L229.842 7.99702L226.374 9.13945L222.907 7.99702L220.43 9.13945L214.981 4.18892L211.019 6.47378L208.047 5.71216L204.084 6.47378L202.102 7.99702L199.626 6.47378L197.644 9.13945L194.672 6.47378H191.7L188.728 7.99702H183.774L179.316 9.13945L175.353 7.99702L174.363 9.13945L169.409 7.99702L168.419 9.13945L165.447 7.99702H162.474L156.035 5.71216L153.063 7.99702H148.605H145.137L139.688 13.3284H136.221L134.24 14.4708L130.277 13.3284L128.791 15.6132H126.314L122.351 13.3284H110.958L106.995 10.2819H104.519L102.042 12.1859H99.0698L95.107 9.13945H89.6581L86.1907 6.47378H84.2093L78.7605 4.18892L76.2837 5.71216H73.807L71.8256 4.18892H68.8535V3.42729H65.8814V2.28486H63.4047V0L57.9558 2.28486L53.4977 1.14243L51.0209 2.28486L48.0488 0L47.0581 2.28486L45.0767 1.14243L39.6279 4.18892L36.1605 4.95054L20.8047 15.6132L12.8791 17.1365L7.92558 24.7527Z" fill="#FFDBA4"/>
</g>
<defs>
<filter id="filter0_di_4_20" x="-4" y="0" width="327.5" height="327.5" filterUnits="userSpaceOnUse" color-interpolation-filters="sRGB">
<feFlood flood-opacity="0" result="BackgroundImageFix"/>
<feColorMatrix in="SourceAlpha" type="matrix" values="0 0 0 0 0 0 0 0 0 0 0 0 0 0 0 0 0 0 127 0" result="hardAlpha"/>
<feOffset dy="4"/>
<feGaussianBlur stdDeviation="2"/>
<feComposite in2="hardAlpha" operator="out"/>
<feColorMatrix type="matrix" values="0 0 0 0 0 0 0 0 0 0 0 0 0 0 0 0 0 0 0.25 0"/>
<feBlend mode="normal" in2="BackgroundImageFix" result="effect1_dropShadow_4_20"/>
<feBlend mode="normal" in="SourceGraphic" in2="effect1_dropShadow_4_20" result="shape"/>
<feColorMatrix in="SourceAlpha" type="matrix" values="0 0 0 0 0 0 0 0 0 0 0 0 0 0 0 0 0 0 127 0" result="hardAlpha"/>
<feOffset dy="4"/>
<feGaussianBlur stdDeviation="2"/>
<feComposite in2="hardAlpha" operator="arithmetic" k2="-1" k3="1"/>
<feColorMatrix type="matrix" values="0 0 0 0 0 0 0 0 0 0 0 0 0 0 0 0 0 0 0.25 0"/>
<feBlend mode="normal" in2="shape" result="effect2_innerShadow_4_20"/>
</filter>
</defs>
</svg>
